<svg width="32" height="32" viewBox="0 0 32 32" xmlns="http://www.w3.org/2000/svg" shape-rendering="crispEdges">
  <!-- Jacket Body (Longer Cut) -->
  <rect x="12" y="8" width="9" height="18" fill="#2196F3" stroke="#1565C0" stroke-width="1"/>
  
  <!-- Collar (More Detailed) -->
  <rect x="14" y="5" width="5" height="2" fill="#FFFFFF"/>
  <rect x="12" y="6" width="2" height="1" fill="#FFFFFF"/> <!-- Left collar fold -->
  <rect x="19" y="6" width="2" height="1" fill="#FFFFFF"/> <!-- Right collar fold -->

    <!-- Cuffs (Thicker) -->
  <rect x="9" y="17" width="2" height="2" fill="#FFFFFF"/> <!-- Left cuff -->
  <rect x="22" y="17" width="2" height="2" fill="#FFFFFF"/> <!-- Right cuff -->
  
  <!-- Sleeves (Angled for Realism) -->
<!-- Adjusted Left Sleeve (+2px right) -->
<polygon points="8,11 12,8 12,16 8,19" fill="#2196F3" stroke="#1565C0" stroke-width="0.5"/>
<!-- Right Sleeve (-1px left) -->
<polygon points="25,11 21,8 21,16 25,19" fill="#2196F3" stroke="#1565C0" stroke-width="0.5"/>
  

  
  <!-- Front Closure (Zipper) -->
  <rect x="16" y="10" width="1" height="14" fill="#000000"/>
  <rect x="16" y="12" width="1" height="1" fill="#FFFFFF"/> <!-- Zipper pull -->
  
  <!-- Pockets (Realistic Slanted) -->
  <polygon points="12,20 13,18 15,18 13,20" fill="#1976D2"/> <!-- Left pocket -->
  <polygon points="17,18 19,18 21,20 19,20" fill="#1976D2"/> <!-- Right pocket -->
  
  <!-- Bottom Hem (Thickened) -->
  <rect x="10" y="26" width="13" height="1" fill="#1565C0"/>
</svg>