<svg xmlns="http://www.w3.org/2000/svg" width="32" height="32" viewBox="0 0 512 512" shape-rendering="crispEdges">
  <!-- Scaled down weapon case (original coordinates preserved but rendered small) -->
  <rect x="69.694" y="178.78" width="372.611" height="154.439" fill="#ffcd8f"/>
  <rect x="173.18" y="279.348" width="165.639" height="53.871" fill="#ffe4c2"/>
  <path d="M82.718,223.817l347.385,-0" fill="none" stroke="#0f0900" stroke-width="3"/>
  <rect x="360.807" y="213.161" width="14.007" height="21.311" fill="#fff6eb"/>
  <rect x="137.186" y="213.161" width="14.007" height="21.311" fill="#fff6eb"/>
<path d="M173.18,333.22l-103.486,-0l0,-154.44l372.612,0l-0,154.44l-103.486,-0l-0,-18.922l84.564,-0l-0,-116.596l-334.768,0l0,116.596l84.564,-0l0,18.922Z" 
      fill="none" 
      stroke="#0f0900" 
      stroke-width="4.5" 
      stroke-opacity="0.7"/>
  <path d="M338.82,279.348l-0,53.872l-165.64,-0l0,-53.872l165.64,0Zm-6.526,6.526c-0,0 -152.588,0 -152.588,0c0,0 0,47.346 0,47.346c0,-0 152.588,-0 152.588,-0l-0,-47.346Z" fill="#0f0900" fill-opacity="0.7"/>
  <path d="M197.674,320.998l-0,-29.431l116.652,-0l0,29.431l-116.652,-0Zm6.526,-6.526c-0,-0 103.6,-0 103.6,-0c0,-0 0,-22.905 0,-22.905c0,-0 -103.6,-0 -103.6,-0l-0,22.905Z" fill="#0c0600" fill-opacity="0.7"/>
</svg>